# xmcd CD database file
#
# Track frame offsets:
#	150
#	19246
#	42204
#	51775
#	73169
#	86141
#	103317
#	119128
#	135097
#	157586
#	177815
#	198767
#	221234
#
# Disc length: 3146 seconds
#
# Revision: 0
# Processed by: cddbd v1.5.2PL0 Copyright (c) Steve Scherf et al.
# Submitted via: CDex 1.51
#
DISCID=b50c480d
DTITLE=Cesare Picco - Christmas Tunes
DYEAR=2006
DGENRE=Jazz
TTITLE0=The First Noel
TTITLE1=Silent Night
TTITLE2=Let It Snow!
TTITLE3=Adeste Fideles
TTITLE4=Jingle Bells
TTITLE5=We Three Kings of Orient Are
TTITLE6=A Yuletide Song
TTITLE7=En Belén Tocan Fuego
TTITLE8=The Christmas Song
TTITLE9=Ovunque Tu Sia
TTITLE10=Time After Time
TTITLE11=Let It Snow! (Orchestral Version)
TTITLE12=Jingle Bells (Grooving' Version)
EXTD=YEAR: 2006
EXTT0=
EXTT1=
EXTT2=
EXTT3=
EXTT4=
EXTT5=
EXTT6=
EXTT7=
EXTT8=
EXTT9=
EXTT10=
EXTT11=
EXTT12=
PLAYORDER=
